<svg width="130" height="56" viewBox="0 0 130 56" fill="none" xmlns="http://www.w3.org/2000/svg">
<mask id="mask0_226_3" style="mask-type:alpha" maskUnits="userSpaceOnUse" x="0" y="9" width="49" height="38">
<rect y="9.33333" width="48.0667" height="37.3333" fill="#D9D9D9"/>
</mask>
<g mask="url(#mask0_226_3)">
<path fill-rule="evenodd" clip-rule="evenodd" d="M38.2727 9.33333L50.0489 20.8205L50.0429 20.8264L76.5333 46.6666L52.9809 46.6667L38.2667 32.3136L23.5525 46.6667L0 46.6666L26.4904 20.8264L26.4844 20.8205L38.2606 9.33333L38.2667 9.33924L38.2727 9.33333Z" fill="#2F2E2D"/>
</g>
<rect x="47.6" width="2.8" height="56" fill="#2F2E2D"/>
<path fill-rule="evenodd" clip-rule="evenodd" d="M81.9535 11.095C81.9535 12.0696 82.7535 12.8568 83.7024 12.8568C84.6885 12.8568 85.4699 12.0696 85.4699 11.095C85.4699 10.1205 84.6885 9.33333 83.7024 9.33333C82.7535 9.33333 81.9535 10.1205 81.9535 11.095ZM82.307 13.7564V23.1272H85.1164V13.7564H82.307ZM91.4495 23.3333C88.6959 23.3333 86.8726 21.0468 86.8726 18.4418C86.8726 15.8367 88.6959 13.5502 91.4495 13.5502C92.3797 13.5502 93.1612 13.8875 93.6449 14.3373V13.7564H96.4543V23.1272H93.6449V22.5274C93.1612 22.996 92.3797 23.3333 91.4495 23.3333ZM91.8774 20.7657C92.7518 20.7657 93.2542 20.3909 93.6449 19.8661V16.9987C93.2542 16.4926 92.7518 16.1178 91.8774 16.1178C90.6308 16.1178 89.775 17.1861 89.775 18.4418C89.775 19.6975 90.6308 20.7657 91.8774 20.7657ZM98.7683 13.7564V23.1272H101.578V16.9799C101.968 16.4739 102.657 16.1178 103.382 16.1178C104.462 16.1178 104.964 17.0174 104.964 18.2731V23.1272H107.773V17.7858C107.773 15.2557 106.415 13.5502 103.996 13.5502C103.01 13.5502 102.155 13.8875 101.578 14.4311V13.7564H98.7683ZM114.351 23.3333C111.616 23.3333 109.402 21.3092 109.402 18.4418C109.402 15.5743 111.616 13.5502 114.351 13.5502C116.286 13.5502 117.998 14.656 118.798 16.2865L116.342 17.5984C116.007 16.7925 115.282 16.1928 114.351 16.1928C113.179 16.1928 112.23 17.1111 112.23 18.4418C112.23 19.7724 113.179 20.6908 114.351 20.6908C115.282 20.6908 116.007 20.091 116.342 19.2851L118.798 20.597C117.998 22.2276 116.286 23.3333 114.351 23.3333ZM124.69 23.3333C121.955 23.3333 119.741 21.4592 119.741 18.4418C119.741 15.6493 121.806 13.5502 124.634 13.5502C127.09 13.5502 129.267 15.087 129.267 18.1232V18.1233C129.267 18.3669 129.267 18.6667 129.211 19.1165H122.457C122.625 20.241 123.666 20.7657 124.727 20.7657C125.806 20.7657 126.625 20.241 126.978 19.6975L129.062 21.2717C128.188 22.5087 126.643 23.3333 124.69 23.3333ZM124.56 15.8554C123.741 15.8554 122.773 16.2302 122.532 17.261H126.476C126.234 16.2677 125.378 15.8554 124.56 15.8554ZM77.1832 23.1272V9.44578H79.9926V23.1272H77.1832ZM72.0595 9.44578V23.1272H74.8689V9.44578H72.0595ZM56.9334 23.1272L62.5894 9.82062H65.2686L70.9246 23.1272H67.8361L66.664 20.3159H61.194L60.0219 23.1272H56.9334ZM65.5849 17.7296L63.929 13.7189L62.2731 17.7296H65.5849ZM82.3889 39.2C82.3889 43.0529 85.4599 46.2 89.2611 46.2C93.0436 46.2 96.1333 43.0529 96.1333 39.2C96.1333 35.3471 93.0436 32.2 89.2611 32.2C85.4599 32.2 82.3889 35.3471 82.3889 39.2ZM93.1185 39.2C93.1185 41.3935 91.4145 43.2627 89.2611 43.2627C87.089 43.2627 85.385 41.3935 85.385 39.2C85.385 37.0065 87.089 35.1373 89.2611 35.1373C91.4145 35.1373 93.1185 37.0065 93.1185 39.2ZM68.2742 45.9711L73.9667 32.4289H76.6631L82.3557 45.9711H79.2473L78.0676 43.1101H72.5623L71.3826 45.9711H68.2742ZM73.6484 40.4779H76.9815L75.3149 36.3962L73.6484 40.4779ZM56.9333 32.4289V45.9711H61.4649C65.21 45.9711 68.2435 42.9575 68.2435 39.2C68.2435 35.4425 65.21 32.4289 61.4649 32.4289H56.9333ZM61.4649 43.1864H59.9107V35.2136H61.4649C63.7119 35.2136 65.2287 37.0256 65.2287 39.2C65.2287 41.3744 63.7119 43.1864 61.4649 43.1864Z" fill="#2F2E2D"/>
</svg>
