<svg xmlns="http://www.w3.org/2000/svg" width="20" height="20" viewBox="0 0 20 20" fill="inherit">
  <path fill-rule="evenodd" clip-rule="evenodd" d="M0.5 5C0.5 4.17157 1.17157 3.5 2 3.5L18 3.5C18.8284 3.5 19.5 4.17157 19.5 5C19.5 5.82843 18.8284 6.5 18 6.5L2 6.5C1.17157 6.5 0.5 5.82843 0.5 5Z" fill="inherit"/>
  <path fill-rule="evenodd" clip-rule="evenodd" d="M3.5 10C3.5 9.17157 4.17157 8.5 5 8.5H15C15.8284 8.5 16.5 9.17157 16.5 10C16.5 10.8284 15.8284 11.5 15 11.5H5C4.17157 11.5 3.5 10.8284 3.5 10Z" fill="inherit"/>
  <path fill-rule="evenodd" clip-rule="evenodd" d="M6.5 15C6.5 14.1716 7.17157 13.5 8 13.5H12C12.8284 13.5 13.5 14.1716 13.5 15C13.5 15.8284 12.8284 16.5 12 16.5H8C7.17157 16.5 6.5 15.8284 6.5 15Z" fill="inherit"/>
</svg>